<svg width="125" height="59" viewBox="0 0 125 59" fill="none" xmlns="http://www.w3.org/2000/svg">
<path d="M101.202 120.509C111.048 112.771 115.596 98.5273 119.662 83.8979C123.559 69.255 126.803 54.2127 123.55 39.1769C120.48 23.9818 110.757 8.60697 97.3657 2.85116C83.7903 -2.74536 66.5323 1.44993 50.354 7.12166C34.3456 12.8069 19.4305 19.7958 10.799 31.6292C2.15384 43.6355 -0.364028 60.3001 1.2641 76.424C2.87853 92.7208 8.46906 108.463 19.1947 117.659C29.9339 126.682 45.822 128.984 61.1674 129.505C76.5266 129.854 91.513 128.434 101.202 120.509Z" fill="url(#paint0_linear_1_869)"/>
<defs>
<linearGradient id="paint0_linear_1_869" x1="6.34701" y1="-5.99992" x2="126.909" y2="126.695" gradientUnits="userSpaceOnUse">
<stop stop-color="#F87537"/>
<stop offset="1" stop-color="#FBA81F"/>
</linearGradient>
</defs>
</svg>
