<svg width="45" height="103" viewBox="0 0 45 103" fill="none" xmlns="http://www.w3.org/2000/svg">
<path d="M37.9813 22.4199C32.0197 14.0018 20.4887 9.67414 8.62028 5.7274C-3.26616 1.91988 -15.508 -1.36751 -28.0117 0.690558C-40.6388 2.59102 -53.6874 9.95779 -58.9733 20.7385C-64.1358 31.6768 -61.3939 46.0474 -57.393 59.5904C-53.374 72.9943 -48.2376 85.5522 -38.8571 93.1399C-29.3351 100.746 -15.7287 103.503 -2.39663 102.826C11.077 102.168 24.2583 98.2159 32.2644 89.7701C40.1289 81.3059 42.6766 68.3296 43.7363 55.7263C44.6544 43.1048 44.1025 30.7171 37.9813 22.4199Z" fill="url(#paint0_linear_1_870)"/>
<defs>
<linearGradient id="paint0_linear_1_870" x1="-69.9975" y1="95.2553" x2="44.1271" y2="1.52571" gradientUnits="userSpaceOnUse">
<stop stop-color="#F87537"/>
<stop offset="1" stop-color="#FBA81F"/>
</linearGradient>
</defs>
</svg>
