<svg width="633" height="490" viewBox="0 0 633 490" fill="none" xmlns="http://www.w3.org/2000/svg">
<g clip-path="url(#clip0_1_785)">
<path d="M484.858 111.944C524.944 148.516 539.791 211.21 552.411 275.398C564.289 339.585 573.197 405.265 553.896 468.706C535.337 532.893 487.827 595.588 427.697 615.74C366.825 635.145 293.333 611.262 225.037 581.407C157.484 551.552 95.1272 516.473 61.7217 462.735C28.3162 408.251 23.1198 335.853 35.7397 267.188C48.3595 197.776 78.0533 132.096 127.79 96.2703C177.527 61.1911 247.308 56.7129 314.119 59.6984C380.93 63.4302 445.514 74.6257 484.858 111.944Z" fill="url(#paint0_linear_1_785)"/>
<path d="M164.509 198.138C136.299 223.759 125.85 267.681 116.97 312.648C108.611 357.616 102.342 403.629 115.925 448.074C128.985 493.042 162.419 536.964 204.734 551.082C247.571 564.676 299.29 547.944 347.351 527.029C394.89 506.114 438.772 481.538 462.281 443.891C485.789 405.721 489.446 355.002 480.565 306.897C471.684 258.269 450.788 212.255 415.786 187.157C380.785 162.582 331.679 159.444 284.662 161.536C237.646 164.15 192.196 171.994 164.509 198.138Z" fill="url(#paint1_linear_1_785)"/>
<path d="M204.932 377.277C208.521 380.577 209.85 386.236 210.98 392.029C212.043 397.822 212.841 403.75 211.113 409.475C209.451 415.268 205.197 420.927 199.814 422.745C194.364 424.497 187.784 422.341 181.669 419.647C175.621 416.952 170.038 413.786 167.047 408.936C164.056 404.019 163.591 397.485 164.721 391.288C165.85 385.023 168.509 379.095 172.962 375.862C177.415 372.696 183.663 372.292 189.645 372.561C195.627 372.898 201.409 373.908 204.932 377.277Z" fill="url(#paint2_linear_1_785)"/>
<path d="M308.505 168.139C314.015 173.2 316.056 181.876 317.79 190.759C319.423 199.641 320.647 208.731 317.994 217.51C315.444 226.393 308.913 235.069 300.648 237.858C292.281 240.543 282.179 237.238 272.792 233.107C263.507 228.975 254.935 224.121 250.344 216.684C245.752 209.144 245.038 199.125 246.773 189.623C248.507 180.017 252.589 170.927 259.425 165.97C266.262 161.115 275.853 160.495 285.036 160.909C294.22 161.425 303.097 162.974 308.505 168.139Z" fill="url(#paint3_linear_1_785)"/>
<path d="M460.953 274.821C462.973 276.766 463.722 280.102 464.358 283.518C464.956 286.933 465.405 290.428 464.432 293.803C463.497 297.218 461.103 300.554 458.072 301.626C455.004 302.659 451.3 301.388 447.858 299.8C444.453 298.211 441.311 296.345 439.627 293.485C437.943 290.586 437.682 286.734 438.318 283.081C438.954 279.388 440.45 275.893 442.957 273.987C445.464 272.12 448.981 271.882 452.348 272.041C455.715 272.239 458.97 272.835 460.953 274.821Z" fill="url(#paint4_linear_1_785)"/>
</g>
<defs>
<linearGradient id="paint0_linear_1_785" x1="29.4375" y1="622.76" x2="592.528" y2="87.7408" gradientUnits="userSpaceOnUse">
<stop stop-color="#F87537"/>
<stop offset="1" stop-color="#FBA81F"/>
</linearGradient>
<linearGradient id="paint1_linear_1_785" x1="485" y1="556" x2="90.4292" y2="179.41" gradientUnits="userSpaceOnUse">
<stop stop-color="#F87537"/>
<stop offset="1" stop-color="#FBA81F"/>
</linearGradient>
<linearGradient id="paint2_linear_1_785" x1="164.156" y1="423.379" x2="214.954" y2="375.498" gradientUnits="userSpaceOnUse">
<stop stop-color="#F87537"/>
<stop offset="1" stop-color="#FBA81F"/>
</linearGradient>
<linearGradient id="paint3_linear_1_785" x1="245.906" y1="238.829" x2="323.802" y2="165.317" gradientUnits="userSpaceOnUse">
<stop stop-color="#F87537"/>
<stop offset="1" stop-color="#FBA81F"/>
</linearGradient>
<linearGradient id="paint4_linear_1_785" x1="438" y1="302" x2="467.834" y2="275.149" gradientUnits="userSpaceOnUse">
<stop stop-color="#F87537"/>
<stop offset="1" stop-color="#FBA81F"/>
</linearGradient>
<clipPath id="clip0_1_785">
<rect width="633" height="612" fill="white"/>
</clipPath>
</defs>
</svg>
