<svg width="138" height="124" viewBox="0 0 138 124" fill="none" xmlns="http://www.w3.org/2000/svg">
<path d="M109.186 6.07505C98.5228 -0.491956 83.5849 0.158807 68.4514 1.39549C53.3639 2.79626 38.1268 4.94704 25.1398 13.1929C11.9398 21.3215 0.869126 35.7561 0.0926772 50.3117C-0.470866 64.9846 9.42675 79.7317 20.3371 92.9556C31.2013 106.015 42.9114 117.599 56.9978 121.612C71.2511 125.579 87.7598 122.186 102.329 115.089C117.066 107.946 129.909 97.2623 134.834 84.0208C139.592 70.8261 136.266 55.1205 131.455 40.5393C126.477 26.005 119.969 12.4311 109.186 6.07505Z" fill="url(#paint0_linear_1_723)"/>
<defs>
<linearGradient id="paint0_linear_1_723" x1="23.2218" y1="138.787" x2="106.112" y2="-20.1858" gradientUnits="userSpaceOnUse">
<stop stop-color="#F87537"/>
<stop offset="1" stop-color="#FBA81F"/>
</linearGradient>
</defs>
</svg>
