<svg width="112" height="112" viewBox="0 0 112 112" fill="none" xmlns="http://www.w3.org/2000/svg">
<g clip-path="url(#clip0_203_553)">
<path d="M56 6.22217C46.1549 6.22217 36.5308 9.14158 28.3449 14.6112C20.159 20.0809 13.7789 27.8551 10.0113 36.9508C6.24374 46.0465 5.25797 56.0552 7.17866 65.7111C9.09934 75.3671 13.8402 84.2366 20.8018 91.1982C27.7633 98.1597 36.6329 102.901 46.2888 104.821C55.9447 106.742 65.9534 105.756 75.0491 101.989C84.1448 98.2211 91.919 91.8409 97.3887 83.655C102.858 75.4691 105.778 65.8451 105.778 55.9999C105.778 42.7981 100.533 30.1369 91.1982 20.8017C81.863 11.4666 69.2019 6.22217 56 6.22217V6.22217ZM56 99.5555C47.3855 99.5555 38.9645 97.001 31.8018 92.2151C24.6391 87.4291 19.0565 80.6267 15.7599 72.6679C12.4633 64.7092 11.6007 55.9516 13.2813 47.5027C14.9619 39.0537 19.1102 31.2929 25.2015 25.2015C31.2929 19.1102 39.0538 14.9619 47.5027 13.2813C55.9517 11.6007 64.7092 12.4632 72.668 15.7599C80.6267 19.0565 87.4291 24.6391 92.2151 31.8018C97.001 38.9644 99.5555 47.3855 99.5555 55.9999C99.5555 67.5516 94.9666 78.6301 86.7984 86.7984C78.6301 94.9666 67.5516 99.5555 56 99.5555Z" fill="#2D9055"/>
<path d="M87.1112 37.6444C86.5283 37.065 85.7398 36.7397 84.9179 36.7397C84.096 36.7397 83.3075 37.065 82.7245 37.6444L48.1912 72.0222L29.5245 53.3555C28.9552 52.7408 28.165 52.3775 27.3278 52.3454C26.4905 52.3133 25.6748 52.6151 25.0601 53.1844C24.4454 53.7538 24.082 54.544 24.0499 55.3812C24.0178 56.2185 24.3197 57.0342 24.889 57.6489L48.1912 80.8889L87.1112 42.0622C87.4028 41.773 87.6343 41.4289 87.7922 41.0498C87.9502 40.6707 88.0315 40.264 88.0315 39.8533C88.0315 39.4426 87.9502 39.036 87.7922 38.6569C87.6343 38.2777 87.4028 37.9337 87.1112 37.6444Z" fill="#2D9039"/>
</g>
<defs>
<clipPath id="clip0_203_553">
<rect width="112" height="112" fill="white"/>
</clipPath>
</defs>
</svg>
